<svg xmlns="http://www.w3.org/2000/svg" width="35" height="33.97"><defs><filter id="a" x="647" y="3559.03" width="35" height="33.97" filterUnits="userSpaceOnUse"><feOffset result="offset" dy="1" in="SourceAlpha"/><feGaussianBlur result="blur" stdDeviation="1"/><feFlood result="flood" flood-opacity=".25"/><feComposite result="composite" operator="in" in2="blur"/><feBlend result="blend" in="SourceGraphic"/></filter></defs><path d="M663.806 3589.76a15.37 15.37 0 1115.35-15.37 15.359 15.359 0 01-15.35 15.37zm.163-18.02c0-3.47-3.775-3.19-3.775-3.19h-5.6l.007 12.32 5.223-.03s4.494.34 4.534-3.69a2.923 2.923 0 00-1.895-2.92 2.547 2.547 0 001.506-2.49zm8.336-2.52h-4.792v1.37h4.792v-1.37zm-2.451 2.1c-4.587 0-4.361 4.82-4.361 4.82s-.256 4.74 4.451 4.74a3.907 3.907 0 004.15-2.99h-2.331a1.759 1.759 0 01-1.759 1.03 2.086 2.086 0 01-2.2-2.19l6.39-.03s.667-5.38-4.34-5.38zm-.015 1.97a1.918 1.918 0 012.015 1.87l-4 .03a2.024 2.024 0 011.985-1.9zm-10.116 5.41l-2.606-.01-.01-3.28s1.585.01 2.651.01c0 0 2.01-.14 2.01 1.53a1.742 1.742 0 01-2.045 1.75zm.02-5.3l-2.631.01v-2.72l2.273.01s2.133-.28 2.133 1.31-1.775 1.39-1.775 1.39z" transform="translate(-647 -3559.03)" fill="#fff" fill-rule="evenodd" filter="url(#a)"/></svg>