<svg xmlns="http://www.w3.org/2000/svg" width="34" height="33.75"><defs><filter id="a" x="686" y="3559.25" width="34" height="33.75" filterUnits="userSpaceOnUse"><feOffset result="offset" dy="1" in="SourceAlpha"/><feGaussianBlur result="blur" stdDeviation="1"/><feFlood result="flood" flood-opacity=".25"/><feComposite result="composite" operator="in" in2="blur"/><feBlend result="blend" in="SourceGraphic"/></filter></defs><path data-name="dribbble" d="M702.546 3586.72a12 12 0 1111.952-12 11.974 11.974 0 01-11.952 12zm9.785-10.74a21.93 21.93 0 00-6.279-.04 43.555 43.555 0 011.915 7.05 9.653 9.653 0 004.364-7.01zm-6.247 7.98a44.318 44.318 0 00-1.963-7.59c-4.928 1.38-7.619 6.16-7.627 6.16a9.866 9.866 0 009.59 1.43zm-11.043-2.82c3.733-5.64 8.4-6.5 8.4-6.5l-.8-1.76s-3.212 1.24-9.94 1.45a9.947 9.947 0 002.34 6.81zm-2.136-8.5a34.661 34.661 0 008.92-1.33 33.946 33.946 0 00-3.721-5.42 10.037 10.037 0 00-5.199 6.75zm7.144-7.48a21.787 21.787 0 013.722 5.47 16.342 16.342 0 005.217-3.39 9.834 9.834 0 00-8.939-2.08zm10.133 3.3a15.345 15.345 0 01-5.629 3.75c.3.64.579 1.31.851 2a24.659 24.659 0 016.984-.02 9.721 9.721 0 00-2.206-5.73zm-7.538-9.2a15.375 15.375 0 11-15.35 15.38 15.368 15.368 0 0115.35-15.38z" transform="translate(-686 -3559.25)" fill="#fff" fill-rule="evenodd" filter="url(#a)"/></svg>