<svg xmlns="http://www.w3.org/2000/svg" width="49" height="48.06"><defs><filter id="a" x="720" y="7239.94" width="49" height="48.06" filterUnits="userSpaceOnUse"><feOffset result="offset" dy="1" in="SourceAlpha"/><feGaussianBlur result="blur" stdDeviation="1"/><feFlood result="flood" flood-opacity=".25"/><feComposite result="composite" operator="in" in2="blur"/><feBlend result="blend" in="SourceGraphic"/></filter></defs><path data-name="google plus" d="M744.707 7270.12c-.084.14.388 3.44-5.013 3.64-5.8-.1-5.929-3.78-5.929-4.12-.024-3.83 5.145-4.02 6.475-4.06 1.148.14 4.427 2.05 4.467 4.54zm-5.269-9.91c4.478 0 3.333-5.02 3.333-5.02s-1.082-4.86-4.241-4.52c-4.046.05-2.924 5.1-2.924 5.1s.946 4.28 3.832 4.44zm-.261.86c-.641.05-.8.03-1.074.05a5.359 5.359 0 01-5.536-5.32 6.022 6.022 0 012.093-4.52c1.046-.89 2.621-1.81 6.064-1.81h6.959l-2.172 1.21h-2.1a5.538 5.538 0 012.445 4.52c0 3.98-3.791 4.43-3.791 6.49 0 1.13 1.243 1.58 2.1 2.36a5.537 5.537 0 012.629 4.7c0 3.19-2.92 6.37-8.7 6.42.022.04-7.184.14-7.421-4.84 0 .03-.326-2.23 2.768-4.12 1.91-1.27 4.439-1.38 6.414-1.58a3.25 3.25 0 01-1-2.27 3.173 3.173 0 01.322-1.29zm13.293-11.76h2.116v8.46h-2.116v-8.46zm-3.173 3.17h8.461v2.11H749.3v-2.11zm-4.822-12.53a22.5 22.5 0 11-22.5 22.5 22.5 22.5 0 0122.5-22.5z" transform="translate(-720 -7239.94)" fill="#fff" fill-rule="evenodd" filter="url(#a)"/></svg>