<svg xmlns="http://www.w3.org/2000/svg" width="49" height="48.94"><defs><filter id="a" x="661" y="7240.06" width="49" height="48.94" filterUnits="userSpaceOnUse"><feOffset result="offset" dy="1" in="SourceAlpha"/><feGaussianBlur result="blur" stdDeviation="1"/><feFlood result="flood" flood-opacity=".25"/><feComposite result="composite" operator="in" in2="blur"/><feBlend result="blend" in="SourceGraphic"/></filter></defs><path d="M674.873 7251.72a2.625 2.625 0 11-2.623 2.63 2.628 2.628 0 012.623-2.63zm-2.311 6.9h5.091v15.37h-5.091v-15.37zm8.464-.09v15.4h5.153v-8.19s-.369-3.15 2.779-3.15c2.649 0 2.343 3.25 2.343 2.87.025-1.45 0 8.5 0 8.5l5.059.01.063-8.05c0-1.46.026-7.67-5.689-7.67a4.812 4.812 0 00-4.552 2.56v-2.28h-5.156zm3.509-18.46a22.5 22.5 0 11-22.5 22.5 22.5 22.5 0 0122.5-22.5z" transform="translate(-661 -7240.06)" fill="#fff" fill-rule="evenodd" filter="url(#a)"/></svg>