<svg xmlns="http://www.w3.org/2000/svg" width="34" height="34"><defs><filter id="a" x="607" y="3559" width="34" height="34" filterUnits="userSpaceOnUse"><feOffset result="offset" dy="1" in="SourceAlpha"/><feGaussianBlur result="blur" stdDeviation="1"/><feFlood result="flood" flood-opacity=".25"/><feComposite result="composite" operator="in" in2="blur"/><feBlend result="blend" in="SourceGraphic"/></filter></defs><path d="M623.234 3572.54c-6.227-4.21-6.639-3.4-6.639-3.39-.489 1.1 1.406 2.48 1.406 2.48l-.541.02s-.8-.03-.623.54a3.669 3.669 0 001.13 1.49 1.553 1.553 0 001.046.01s-.616.33-1.006.57c-.643.42-.181.78-.111.85a3.029 3.029 0 002.152.84 3.319 3.319 0 00-.616 1.02 1.031 1.031 0 00.441.76 2.048 2.048 0 00.907.28c-3.369 3.58-7.429-.02-7.429-.03.453 2.62 4.3 5.15 11.069 4.17 5.488-.88 7.243-6.9 7.243-6.9s2.268.13 2.524-1.22a5.636 5.636 0 01-1.733-.08s1.744-.76 1.826-1.67a3.838 3.838 0 01-2.582.58c-1.186-4.14-4.034-4.14-4.034-4.14s1.209-.69 1.174-1.1a1.508 1.508 0 00-1.181.26.435.435 0 00-.168-.65 1.344 1.344 0 00-.674.7.663.663 0 00-.337-.33c-1.907.53-3.25 4.94-3.244 4.94zm.3-13.54a15.375 15.375 0 11-15.35 15.38 15.367 15.367 0 0115.353-15.38z" transform="translate(-607 -3559)" fill="#fff" fill-rule="evenodd" filter="url(#a)"/></svg>